<svg width="20" height="20" viewBox="0 0 20 20" fill="none" xmlns="http://www.w3.org/2000/svg">
<g clip-path="url(#clip0_249_744)">
<path d="M3.20849 7.18321C3.08686 6.63532 3.10554 6.06558 3.26279 5.52683C3.42004 4.98807 3.71078 4.49775 4.10805 4.10131C4.50532 3.70488 4.99625 3.41516 5.53533 3.25904C6.07441 3.10292 6.64419 3.08543 7.19183 3.20821C7.49325 2.7368 7.9085 2.34884 8.39929 2.08012C8.89008 1.81139 9.44062 1.67053 10.0002 1.67053C10.5597 1.67053 11.1102 1.81139 11.601 2.08012C12.0918 2.34884 12.5071 2.7368 12.8085 3.20821C13.357 3.0849 13.9277 3.1023 14.4677 3.25881C15.0076 3.41531 15.4992 3.70583 15.8967 4.10334C16.2942 4.50085 16.5847 4.99244 16.7412 5.53238C16.8977 6.07232 16.9151 6.64307 16.7918 7.19154C17.2632 7.49297 17.6512 7.90821 17.9199 8.399C18.1886 8.88979 18.3295 9.44033 18.3295 9.99988C18.3295 10.5594 18.1886 11.11 17.9199 11.6008C17.6512 12.0915 17.2632 12.5068 16.7918 12.8082C16.9146 13.3559 16.8971 13.9256 16.741 14.4647C16.5849 15.0038 16.2952 15.4947 15.8987 15.892C15.5023 16.2893 15.012 16.58 14.4732 16.7372C13.9345 16.8945 13.3647 16.9132 12.8168 16.7915C12.5158 17.2648 12.1002 17.6544 11.6086 17.9243C11.117 18.1942 10.5652 18.3358 10.0043 18.3358C9.44347 18.3358 8.89168 18.1942 8.40006 17.9243C7.90843 17.6544 7.49286 17.2648 7.19183 16.7915C6.64419 16.9143 6.07441 16.8968 5.53533 16.7407C4.99625 16.5846 4.50532 16.2949 4.10805 15.8984C3.71078 15.502 3.42004 15.0117 3.26279 14.4729C3.10554 13.9342 3.08686 13.3644 3.20849 12.8165C2.73346 12.5159 2.34217 12.1 2.07103 11.6076C1.7999 11.1151 1.65771 10.5621 1.65771 9.99988C1.65771 9.43771 1.7999 8.88466 2.07103 8.3922C2.34217 7.89973 2.73346 7.48384 3.20849 7.18321Z" stroke="white" stroke-width="2" stroke-linecap="round" stroke-linejoin="round"/>
<path d="M7.5 10.0001L9.16667 11.6668L12.5 8.33344" stroke="white" stroke-width="2" stroke-linecap="round" stroke-linejoin="round"/>
</g>
<defs>
<clipPath id="clip0_249_744">
<rect width="20" height="20" fill="white"/>
</clipPath>
</defs>
</svg>
