<svg width="113" height="32" viewBox="0 0 113 32" fill="none" xmlns="http://www.w3.org/2000/svg">
<g clip-path="url(#clip0_249_534)">
<g clip-path="url(#clip1_249_534)">
<path d="M49.953 26.227L44.6576 17.6679H40.4947V26.227H37.1643V4.01334H46.5227C50.7523 4.01334 53.6497 6.74428 53.6497 10.8407C53.6497 14.8371 50.9521 16.9686 48.1212 17.335L53.8162 26.2271H49.9529L49.953 26.227ZM46.0898 6.94417H40.4947V14.7372H46.0898C48.4876 14.7372 50.2194 13.172 50.2194 10.8407C50.2194 8.50946 48.4876 6.94417 46.0898 6.94417Z" fill="white"/>
<path d="M54.7464 18.1675C54.7464 13.5382 57.877 9.7417 62.8725 9.7417C67.9014 9.7417 70.9986 13.5383 70.9986 18.1675C70.9986 22.8301 67.9014 26.6267 62.8725 26.6267C57.877 26.6267 54.7464 22.8301 54.7464 18.1675ZM67.8681 18.1675C67.8681 15.1369 66.103 12.406 62.8725 12.406C59.6753 12.406 57.877 15.1369 57.877 18.1675C57.877 21.2315 59.6753 23.9624 62.8725 23.9624C66.103 23.9624 67.8681 21.2315 67.8681 18.1675Z" fill="white"/>
<path d="M83.7848 26.227V24.4618C82.5193 25.8607 80.6876 26.6266 78.5228 26.6266C75.8584 26.6266 72.9276 24.8282 72.9276 21.298C72.9276 17.6346 75.8251 16.036 78.5228 16.036C80.6875 16.036 82.5525 16.7353 83.7848 18.1673V15.503C83.7848 13.5048 82.1529 12.3059 79.855 12.3059C78.0232 12.3059 76.458 13.0053 75.0259 14.4373L73.727 12.3725C75.5255 10.6074 77.7235 9.74146 80.3212 9.74146C83.8182 9.74146 86.7822 11.2735 86.7822 15.3698V26.2269H83.7849L83.7848 26.227ZM83.7848 19.9659C82.8856 18.7669 81.3203 18.1342 79.6551 18.1342C77.4903 18.1342 75.9584 19.433 75.9584 21.3313C75.9584 23.2297 77.4903 24.5285 79.6551 24.5285C81.3203 24.5285 82.8856 23.8958 83.7848 22.6968V19.9659Z" fill="white"/>
<path d="M90.6763 21.9308C91.7753 23.1297 93.9067 24.2288 96.0715 24.2288C98.3361 24.2288 99.5351 23.2963 99.5351 21.9308C99.5351 20.3322 97.7034 19.7994 95.6385 19.3331C92.9077 18.7003 89.7104 17.9676 89.7104 14.504C89.7104 11.9396 91.9085 9.74161 95.8384 9.74161C98.6025 9.74161 100.601 10.7407 101.966 12.0396L100.634 14.1377C99.7017 13.0054 97.9033 12.1727 95.8717 12.1727C93.8402 12.1727 92.5746 12.9721 92.5746 14.2709C92.5746 15.6697 94.3064 16.1359 96.3046 16.6022C99.1022 17.2349 102.433 18.001 102.433 21.6977C102.433 24.4618 100.168 26.6266 95.9383 26.6266C93.2407 26.6266 90.8761 25.7941 89.2442 24.1289L90.6763 21.9308Z" fill="white"/>
<path d="M105.893 22.6636V12.7723H103.229V10.1412H105.893V5.74515H108.891V10.1413H112.155V12.7723H108.891V21.9975C108.891 23.1298 109.424 23.9624 110.456 23.9624C111.155 23.9624 111.788 23.6627 112.088 23.3297L112.854 25.5944C112.221 26.1938 111.289 26.6268 109.723 26.6268C107.192 26.6268 105.893 25.1948 105.893 22.6637L105.893 22.6636Z" fill="white"/>
</g>
<g clip-path="url(#clip2_249_534)">
<path d="M24.5646 31.1468C23.9886 31.5781 23.3146 31.7868 22.6465 31.7868C21.6737 31.7868 20.713 31.3452 20.0846 30.5068L12.4046 20.2668C11.803 19.4649 10.8462 18.9868 9.84456 18.9868H3.44456C1.67688 18.9868 0.24456 20.4191 0.24456 22.1868V15.7868C0.24456 14.0191 1.67688 12.5868 3.44456 12.5868H9.84456C12.85 12.5868 15.721 14.0223 17.5246 16.4268L25.2046 26.6668C26.265 28.0805 25.9783 30.0863 24.5646 31.1468Z" fill="url(#paint0_linear_249_534)"/>
<path d="M6.64456 18.9868V28.5868C6.64456 30.3538 5.2116 31.7868 3.44456 31.7868C1.67752 31.7868 0.24456 30.3538 0.24456 28.5868V22.1868C0.24456 20.4191 1.67688 18.9868 3.44456 18.9868H6.64456Z" fill="url(#paint1_linear_249_534)"/>
<path d="M19.4446 9.38674C19.4446 7.62226 18.009 6.18674 16.2446 6.18674H3.44456C1.67688 6.18674 0.24456 4.75378 0.24456 2.98674C0.24456 1.2197 1.67688 -0.213257 3.44456 -0.213257H9.84456C15.1463 -0.213257 19.4446 4.08498 19.4446 9.38674Z" fill="url(#paint2_linear_249_534)"/>
<path d="M25.8446 9.38677V12.5868C25.8446 14.3538 24.4116 15.7868 22.6446 15.7868C20.8775 15.7868 19.4446 14.3538 19.4446 12.5868V9.38677C19.4446 4.08501 15.1463 -0.213226 9.84456 -0.213226H16.2446C18.1966 -0.213226 20.0148 0.372374 21.5322 1.37781C24.1287 3.09813 25.8446 6.04597 25.8446 9.38677Z" fill="url(#paint3_linear_249_534)"/>
</g>
</g>
<defs>
<linearGradient id="paint0_linear_249_534" x1="1.84514" y1="22.1868" x2="22.4016" y2="22.1868" gradientUnits="userSpaceOnUse">
<stop stop-color="#FF9518"/>
<stop offset="0.518" stop-color="#FF5D18"/>
<stop offset="0.999" stop-color="#DB1D10"/>
</linearGradient>
<linearGradient id="paint1_linear_249_534" x1="3.44456" y1="31.4344" x2="3.44456" y2="18.8568" gradientUnits="userSpaceOnUse">
<stop stop-color="#FF9518"/>
<stop offset="0.518" stop-color="#FF5D18"/>
<stop offset="0.999" stop-color="#DB1D10"/>
</linearGradient>
<linearGradient id="paint2_linear_249_534" x1="0.24456" y1="4.58674" x2="19.4446" y2="4.58674" gradientUnits="userSpaceOnUse">
<stop stop-color="#FF9518"/>
<stop offset="0.518" stop-color="#FF5D18"/>
<stop offset="0.999" stop-color="#DB1D10"/>
</linearGradient>
<linearGradient id="paint3_linear_249_534" x1="17.8446" y1="1.07586" x2="17.8446" y2="15.2844" gradientUnits="userSpaceOnUse">
<stop stop-color="#FF9518"/>
<stop offset="0.518" stop-color="#FF5D18"/>
<stop offset="0.999" stop-color="#FF5D18"/>
</linearGradient>
<clipPath id="clip0_249_534">
<rect width="112.64" height="32" fill="white" transform="translate(0.0442963)"/>
</clipPath>
<clipPath id="clip1_249_534">
<rect width="75.6896" height="22.6133" fill="white" transform="translate(37.1643 4.01334)"/>
</clipPath>
<clipPath id="clip2_249_534">
<rect width="25.6002" height="32" fill="white" transform="translate(0.24456 -0.213257)"/>
</clipPath>
</defs>
</svg>
