<svg width="265" height="58" viewBox="0 0 265 58" fill="none" xmlns="http://www.w3.org/2000/svg">
<g clip-path="url(#clip0_249_567)">
<rect width="43" height="37" rx="8" fill="url(#paint0_linear_249_567)"/>
<path d="M15.8628 20.66H20.1228L18.9228 15.53C18.6228 14.18 18.2928 12.44 18.0528 11.06H17.9628C17.6928 12.47 17.3928 14.24 17.0928 15.56L15.8628 20.66ZM20.5728 23.18H15.4128L13.9728 29H10.7628L16.1928 8H20.0628L25.2828 29H22.0128L20.5728 23.18ZM27.7252 29V8H30.9652V29H27.7252Z" fill="white"/>
<g opacity="0.25" filter="url(#filter0_f_249_567)">
<ellipse cx="33" cy="10" rx="23" ry="18" fill="#FF6B18"/>
</g>
</g>
<rect x="1" y="1" width="41" height="35" rx="7" stroke="url(#paint1_angular_249_567)" stroke-width="2"/>
<g filter="url(#filter1_dd_249_567)">
<path d="M57.7534 10.048V19.054C58.1334 19.13 58.5894 19.168 59.1214 19.168C62.0854 19.168 63.7194 17.268 63.7194 14.38C63.7194 11.872 62.3894 10.048 59.5014 10.048C59.0074 10.048 57.7534 10.048 57.7534 10.048ZM52.8894 33V6.4H58.9314C62.0854 6.4 64.5174 6.856 66.1894 8.338C67.7474 9.706 68.5454 11.834 68.5454 14.19C68.5454 19.814 64.8214 23.044 59.2734 23.044C58.7414 23.044 58.0954 23.044 57.7534 22.968V33H52.8894ZM74.908 10.048V18.522H76.466C79.126 18.522 80.722 16.698 80.722 14.152C80.722 11.606 79.43 10.086 76.77 10.048C76.086 10.048 74.908 10.048 74.908 10.048ZM70.044 33V6.4H76.162C81.444 6.4 85.624 7.654 85.624 13.734C85.624 16.85 83.876 19.244 81.292 20.384V20.46C83.154 21.182 84.142 22.93 84.712 25.78C85.358 28.934 86.042 32.05 86.536 33H81.482C81.102 32.24 80.494 29.77 79.962 26.654C79.392 23.234 78.366 22.208 76.2 22.208H74.908V33H70.044ZM96.9177 29.314C99.9577 29.314 101.592 25.438 101.592 19.662C101.592 14 99.9957 10.048 96.9177 10.048C93.8777 10.048 92.2437 13.962 92.2437 19.7C92.2437 25.438 93.9157 29.314 96.9177 29.314ZM96.9557 5.906C103.454 5.906 106.684 11.872 106.684 19.624C106.684 27.528 103.34 33.456 96.8417 33.456C90.4197 33.456 87.1517 27.49 87.1517 19.738C87.1517 11.872 90.4957 5.906 96.9557 5.906ZM122.153 22.132H127.169C126.675 28.934 123.749 33.456 117.821 33.456C111.399 33.456 108.131 27.49 108.131 19.738C108.131 11.872 111.475 5.906 117.935 5.906C123.901 5.906 126.713 10.504 127.169 17.04H122.153C121.887 12.746 120.443 10.048 117.897 10.048C114.857 10.048 113.223 13.962 113.223 19.7C113.223 25.438 114.895 29.314 117.897 29.314C120.405 29.314 121.887 26.73 122.153 22.132ZM129.526 6.4H142.294V10.542H134.428V17.154H141.876V21.182H134.428V28.858H142.788V33H129.526V6.4ZM153.457 17.382C158.891 19.89 160.601 22.094 160.601 26.046C160.601 29.846 158.131 33.456 152.773 33.456C146.883 33.456 144.413 29.846 144.299 24.944H149.087C149.163 27.376 150.379 29.238 152.735 29.238C154.483 29.238 155.661 28.136 155.661 26.236C155.661 24.07 154.255 22.778 151.253 21.448C146.921 19.7 144.413 17.154 144.413 13.05C144.413 8.49 147.567 5.906 152.051 5.906C157.941 5.906 160.031 10.124 160.107 14.304H155.319C155.243 12.29 154.445 10.2 152.203 10.2C150.303 10.2 149.429 11.378 149.429 12.822C149.429 14.95 150.949 16.204 153.457 17.382ZM171.503 17.382C176.937 19.89 178.647 22.094 178.647 26.046C178.647 29.846 176.177 33.456 170.819 33.456C164.929 33.456 162.459 29.846 162.345 24.944H167.133C167.209 27.376 168.425 29.238 170.781 29.238C172.529 29.238 173.707 28.136 173.707 26.236C173.707 24.07 172.301 22.778 169.299 21.448C164.967 19.7 162.459 17.154 162.459 13.05C162.459 8.49 165.613 5.906 170.097 5.906C175.987 5.906 178.077 10.124 178.153 14.304H173.365C173.289 12.29 172.491 10.2 170.249 10.2C168.349 10.2 167.475 11.378 167.475 12.822C167.475 14.95 168.995 16.204 171.503 17.382ZM180.969 33V6.4H185.871V33H180.969ZM193.612 33H189.242V6.4H194.144L199.122 17.268C200.262 19.7 201.668 23.082 202.58 25.666H202.656C202.428 22.398 202.2 18.37 202.2 13.81V6.4H206.57V33H201.858L196.88 22.132C195.664 19.586 194.296 16.318 193.422 13.544H193.308C193.498 16.622 193.612 20.46 193.612 25.514V33ZM222.979 22.664H218.457V19.092H227.691V33H223.017V26.312C222.295 29.922 220.471 33.456 217.051 33.456C211.731 33.456 208.653 27.832 208.653 19.738C208.653 12.024 211.921 5.906 218.457 5.906C224.385 5.906 227.235 10.466 227.653 16.926H222.675C222.447 12.67 220.965 10.01 218.419 10.01C215.341 10.01 213.745 13.962 213.745 19.7C213.745 25.4 215.341 29.352 218.495 29.352C220.623 29.352 222.485 26.73 222.979 22.664ZM230.758 33V27.338H235.926V33H230.758ZM239.23 33V27.338H244.398V33H239.23ZM247.702 33V27.338H252.87V33H247.702Z" fill="#FFF5ED"/>
</g>
<defs>
<filter id="filter0_f_249_567" x="-9" y="-27" width="84" height="74" filterUnits="userSpaceOnUse" color-interpolation-filters="sRGB">
<feFlood flood-opacity="0" result="BackgroundImageFix"/>
<feBlend mode="normal" in="SourceGraphic" in2="BackgroundImageFix" result="shape"/>
<feGaussianBlur stdDeviation="9.5" result="effect1_foregroundBlur_249_567"/>
</filter>
<filter id="filter1_dd_249_567" x="40.8895" y="5.90601" width="223.981" height="51.55" filterUnits="userSpaceOnUse" color-interpolation-filters="sRGB">
<feFlood flood-opacity="0" result="BackgroundImageFix"/>
<feColorMatrix in="SourceAlpha" type="matrix" values="0 0 0 0 0 0 0 0 0 0 0 0 0 0 0 0 0 0 127 0" result="hardAlpha"/>
<feMorphology radius="2" operator="erode" in="SourceAlpha" result="effect1_dropShadow_249_567"/>
<feOffset dy="4"/>
<feGaussianBlur stdDeviation="3"/>
<feComposite in2="hardAlpha" operator="out"/>
<feColorMatrix type="matrix" values="0 0 0 0 0 0 0 0 0 0 0 0 0 0 0 0 0 0 0.03 0"/>
<feBlend mode="normal" in2="BackgroundImageFix" result="effect1_dropShadow_249_567"/>
<feColorMatrix in="SourceAlpha" type="matrix" values="0 0 0 0 0 0 0 0 0 0 0 0 0 0 0 0 0 0 127 0" result="hardAlpha"/>
<feMorphology radius="4" operator="erode" in="SourceAlpha" result="effect2_dropShadow_249_567"/>
<feOffset dy="12"/>
<feGaussianBlur stdDeviation="8"/>
<feComposite in2="hardAlpha" operator="out"/>
<feColorMatrix type="matrix" values="0 0 0 0 0 0 0 0 0 0 0 0 0 0 0 0 0 0 0.08 0"/>
<feBlend mode="normal" in2="effect1_dropShadow_249_567" result="effect2_dropShadow_249_567"/>
<feBlend mode="normal" in="SourceGraphic" in2="effect2_dropShadow_249_567" result="shape"/>
</filter>
<linearGradient id="paint0_linear_249_567" x1="0" y1="18.5" x2="43" y2="18.5" gradientUnits="userSpaceOnUse">
<stop stop-color="#15191C"/>
<stop offset="1"/>
</linearGradient>
<radialGradient id="paint1_angular_249_567" cx="0" cy="0" r="1" gradientUnits="userSpaceOnUse" gradientTransform="translate(21.5 18.5) rotate(90) scale(18.5 21.5)">
<stop stop-color="#FF6B18"/>
<stop offset="0.51" stop-color="#FF73A6"/>
<stop offset="1" stop-color="#EF4014"/>
</radialGradient>
<clipPath id="clip0_249_567">
<rect width="43" height="37" rx="8" fill="white"/>
</clipPath>
</defs>
</svg>
